#format: frame checksums
#version: 1
#hash: MD5
#tb 0: 1001/30000
#stream#, dts,        pts, duration,     size, hash
0,          0,          0,        1,     1728, 72c74de547d9ed1b17bc962dbd5e0bb1
0,          1,          1,        1,     1728, 462849f9e2204738e9f08b40e682a6ae
0,          2,          2,        1,     1728, f0ee17692fd816747b11d5737b511cda
0,          3,          3,        1,     1728, 0234d23406660ede76dd22b35a708390
0,          4,          4,        1,     1728, 6544fdb9dc225d155820d3c7dfc909eb
0,          5,          5,        1,     1728, 1c073544794389596177512fb4dcffce
0,          6,          6,        1,     1728, 864709daac7b091d33afa2210c145084
0,          7,          7,        1,     1728, b049c4ac941743613ede9a41b16acde5
0,          8,          8,        1,     1728, ad0c4adb0efec03729a79f42eec66267
0,          9,          9,        1,     1728, 146057d941f5a47eb8b2c9eefeaf3100
